<mxfile host="Electron" modified="2023-12-01T14:36:05.278Z" agent="Mozilla/5.0 (Windows NT 10.0; Win64; x64) AppleWebKit/537.36 (KHTML, like Gecko) draw.io/22.1.2 Chrome/114.0.5735.289 Electron/25.9.4 Safari/537.36" etag="mvQWZfk4qjyYwscVVF8B" version="22.1.2" type="device" pages="2">
  <diagram name="UML Diagram" id="IVy4kORPUXcKEh-t4bA1">
    <mxGraphModel dx="2074" dy="1196" grid="1" gridSize="10" guides="1" tooltips="1" connect="1" arrows="1" fold="1" page="1" pageScale="1" pageWidth="850" pageHeight="1100" math="0" shadow="0">
      <root>
        <mxCell id="0" />
        <mxCell id="1" parent="0" />
        <mxCell id="d-9lpqkBZuLZvRprWv79-5" value="Course" style="swimlane;fontStyle=1;align=center;verticalAlign=top;childLayout=stackLayout;horizontal=1;startSize=26;horizontalStack=0;resizeParent=1;resizeParentMax=0;resizeLast=0;collapsible=1;marginBottom=0;whiteSpace=wrap;html=1;" parent="1" vertex="1">
          <mxGeometry x="570" y="443" width="160" height="240" as="geometry" />
        </mxCell>
        <mxCell id="d-9lpqkBZuLZvRprWv79-6" value="- moduleList: Map&amp;lt;String, Module&amp;gt;" style="text;strokeColor=none;fillColor=none;align=left;verticalAlign=top;spacingLeft=4;spacingRight=4;overflow=hidden;rotatable=0;points=[[0,0.5],[1,0.5]];portConstraint=eastwest;whiteSpace=wrap;html=1;" parent="d-9lpqkBZuLZvRprWv79-5" vertex="1">
          <mxGeometry y="26" width="160" height="34" as="geometry" />
        </mxCell>
        <mxCell id="d-9lpqkBZuLZvRprWv79-32" value="- courseName: String" style="text;strokeColor=none;fillColor=none;align=left;verticalAlign=top;spacingLeft=4;spacingRight=4;overflow=hidden;rotatable=0;points=[[0,0.5],[1,0.5]];portConstraint=eastwest;whiteSpace=wrap;html=1;" parent="d-9lpqkBZuLZvRprWv79-5" vertex="1">
          <mxGeometry y="60" width="160" height="30" as="geometry" />
        </mxCell>
        <mxCell id="d-9lpqkBZuLZvRprWv79-31" value="- subject: String" style="text;strokeColor=none;fillColor=none;align=left;verticalAlign=top;spacingLeft=4;spacingRight=4;overflow=hidden;rotatable=0;points=[[0,0.5],[1,0.5]];portConstraint=eastwest;whiteSpace=wrap;html=1;" parent="d-9lpqkBZuLZvRprWv79-5" vertex="1">
          <mxGeometry y="90" width="160" height="30" as="geometry" />
        </mxCell>
        <mxCell id="d-9lpqkBZuLZvRprWv79-34" value="- introText: String" style="text;strokeColor=none;fillColor=none;align=left;verticalAlign=top;spacingLeft=4;spacingRight=4;overflow=hidden;rotatable=0;points=[[0,0.5],[1,0.5]];portConstraint=eastwest;whiteSpace=wrap;html=1;" parent="d-9lpqkBZuLZvRprWv79-5" vertex="1">
          <mxGeometry y="120" width="160" height="30" as="geometry" />
        </mxCell>
        <mxCell id="d-9lpqkBZuLZvRprWv79-35" value="- difficulty: Difficulty" style="text;strokeColor=none;fillColor=none;align=left;verticalAlign=top;spacingLeft=4;spacingRight=4;overflow=hidden;rotatable=0;points=[[0,0.5],[1,0.5]];portConstraint=eastwest;whiteSpace=wrap;html=1;" parent="d-9lpqkBZuLZvRprWv79-5" vertex="1">
          <mxGeometry y="150" width="160" height="30" as="geometry" />
        </mxCell>
        <mxCell id="-ISysN1ehly7zMD1c2o9-18" value="- progress: Progress" style="text;strokeColor=none;fillColor=none;align=left;verticalAlign=top;spacingLeft=4;spacingRight=4;overflow=hidden;rotatable=0;points=[[0,0.5],[1,0.5]];portConstraint=eastwest;whiteSpace=wrap;html=1;" vertex="1" parent="d-9lpqkBZuLZvRprWv79-5">
          <mxGeometry y="180" width="160" height="26" as="geometry" />
        </mxCell>
        <mxCell id="d-9lpqkBZuLZvRprWv79-7" value="" style="line;strokeWidth=1;fillColor=none;align=left;verticalAlign=middle;spacingTop=-1;spacingLeft=3;spacingRight=3;rotatable=0;labelPosition=right;points=[];portConstraint=eastwest;strokeColor=inherit;" parent="d-9lpqkBZuLZvRprWv79-5" vertex="1">
          <mxGeometry y="206" width="160" height="8" as="geometry" />
        </mxCell>
        <mxCell id="d-9lpqkBZuLZvRprWv79-8" value="+ method(type): type" style="text;strokeColor=none;fillColor=none;align=left;verticalAlign=top;spacingLeft=4;spacingRight=4;overflow=hidden;rotatable=0;points=[[0,0.5],[1,0.5]];portConstraint=eastwest;whiteSpace=wrap;html=1;" parent="d-9lpqkBZuLZvRprWv79-5" vertex="1">
          <mxGeometry y="214" width="160" height="26" as="geometry" />
        </mxCell>
        <mxCell id="d-9lpqkBZuLZvRprWv79-1" value="Module" style="swimlane;fontStyle=1;align=center;verticalAlign=top;childLayout=stackLayout;horizontal=1;startSize=26;horizontalStack=0;resizeParent=1;resizeParentMax=0;resizeLast=0;collapsible=1;marginBottom=0;whiteSpace=wrap;html=1;" parent="1" vertex="1">
          <mxGeometry x="45" y="230" width="190" height="170" as="geometry" />
        </mxCell>
        <mxCell id="d-9lpqkBZuLZvRprWv79-23" value="- version: String {id}" style="text;strokeColor=none;fillColor=none;align=left;verticalAlign=top;spacingLeft=4;spacingRight=4;overflow=hidden;rotatable=0;points=[[0,0.5],[1,0.5]];portConstraint=eastwest;whiteSpace=wrap;html=1;" parent="d-9lpqkBZuLZvRprWv79-1" vertex="1">
          <mxGeometry y="26" width="190" height="26" as="geometry" />
        </mxCell>
        <mxCell id="-ISysN1ehly7zMD1c2o9-20" value="- ReferenceNr: String {unique}" style="text;strokeColor=none;fillColor=none;align=left;verticalAlign=top;spacingLeft=4;spacingRight=4;overflow=hidden;rotatable=0;points=[[0,0.5],[1,0.5]];portConstraint=eastwest;whiteSpace=wrap;html=1;" vertex="1" parent="d-9lpqkBZuLZvRprWv79-1">
          <mxGeometry y="52" width="190" height="26" as="geometry" />
        </mxCell>
        <mxCell id="d-9lpqkBZuLZvRprWv79-24" value="- contactPersonName: String" style="text;strokeColor=none;fillColor=none;align=left;verticalAlign=top;spacingLeft=4;spacingRight=4;overflow=hidden;rotatable=0;points=[[0,0.5],[1,0.5]];portConstraint=eastwest;whiteSpace=wrap;html=1;" parent="d-9lpqkBZuLZvRprWv79-1" vertex="1">
          <mxGeometry y="78" width="190" height="32" as="geometry" />
        </mxCell>
        <mxCell id="d-9lpqkBZuLZvRprWv79-30" value="- contactPersonMail: String" style="text;strokeColor=none;fillColor=none;align=left;verticalAlign=top;spacingLeft=4;spacingRight=4;overflow=hidden;rotatable=0;points=[[0,0.5],[1,0.5]];portConstraint=eastwest;whiteSpace=wrap;html=1;" parent="d-9lpqkBZuLZvRprWv79-1" vertex="1">
          <mxGeometry y="110" width="190" height="26" as="geometry" />
        </mxCell>
        <mxCell id="d-9lpqkBZuLZvRprWv79-3" value="" style="line;strokeWidth=1;fillColor=none;align=left;verticalAlign=middle;spacingTop=-1;spacingLeft=3;spacingRight=3;rotatable=0;labelPosition=right;points=[];portConstraint=eastwest;strokeColor=inherit;" parent="d-9lpqkBZuLZvRprWv79-1" vertex="1">
          <mxGeometry y="136" width="190" height="8" as="geometry" />
        </mxCell>
        <mxCell id="d-9lpqkBZuLZvRprWv79-4" value="+ method(type): type" style="text;strokeColor=none;fillColor=none;align=left;verticalAlign=top;spacingLeft=4;spacingRight=4;overflow=hidden;rotatable=0;points=[[0,0.5],[1,0.5]];portConstraint=eastwest;whiteSpace=wrap;html=1;" parent="d-9lpqkBZuLZvRprWv79-1" vertex="1">
          <mxGeometry y="144" width="190" height="26" as="geometry" />
        </mxCell>
        <mxCell id="-ISysN1ehly7zMD1c2o9-12" style="edgeStyle=orthogonalEdgeStyle;rounded=0;orthogonalLoop=1;jettySize=auto;html=1;exitX=0.5;exitY=0;exitDx=0;exitDy=0;endArrow=block;endFill=0;" edge="1" parent="1" source="d-9lpqkBZuLZvRprWv79-9" target="d-9lpqkBZuLZvRprWv79-27">
          <mxGeometry relative="1" as="geometry" />
        </mxCell>
        <mxCell id="d-9lpqkBZuLZvRprWv79-9" value="Webcast" style="swimlane;fontStyle=1;align=center;verticalAlign=top;childLayout=stackLayout;horizontal=1;startSize=26;horizontalStack=0;resizeParent=1;resizeParentMax=0;resizeLast=0;collapsible=1;marginBottom=0;whiteSpace=wrap;html=1;" parent="1" vertex="1">
          <mxGeometry x="60" y="730" width="160" height="122" as="geometry" />
        </mxCell>
        <mxCell id="d-9lpqkBZuLZvRprWv79-26" value="- presenterName: String" style="text;strokeColor=none;fillColor=none;align=left;verticalAlign=top;spacingLeft=4;spacingRight=4;overflow=hidden;rotatable=0;points=[[0,0.5],[1,0.5]];portConstraint=eastwest;whiteSpace=wrap;html=1;" parent="d-9lpqkBZuLZvRprWv79-9" vertex="1">
          <mxGeometry y="26" width="160" height="26" as="geometry" />
        </mxCell>
        <mxCell id="d-9lpqkBZuLZvRprWv79-28" value="- presenterOrganization: String" style="text;strokeColor=none;fillColor=none;align=left;verticalAlign=top;spacingLeft=4;spacingRight=4;overflow=hidden;rotatable=0;points=[[0,0.5],[1,0.5]];portConstraint=eastwest;whiteSpace=wrap;html=1;" parent="d-9lpqkBZuLZvRprWv79-9" vertex="1">
          <mxGeometry y="52" width="160" height="36" as="geometry" />
        </mxCell>
        <mxCell id="d-9lpqkBZuLZvRprWv79-11" value="" style="line;strokeWidth=1;fillColor=none;align=left;verticalAlign=middle;spacingTop=-1;spacingLeft=3;spacingRight=3;rotatable=0;labelPosition=right;points=[];portConstraint=eastwest;strokeColor=inherit;" parent="d-9lpqkBZuLZvRprWv79-9" vertex="1">
          <mxGeometry y="88" width="160" height="8" as="geometry" />
        </mxCell>
        <mxCell id="d-9lpqkBZuLZvRprWv79-12" value="+ method(type): type" style="text;strokeColor=none;fillColor=none;align=left;verticalAlign=top;spacingLeft=4;spacingRight=4;overflow=hidden;rotatable=0;points=[[0,0.5],[1,0.5]];portConstraint=eastwest;whiteSpace=wrap;html=1;" parent="d-9lpqkBZuLZvRprWv79-9" vertex="1">
          <mxGeometry y="96" width="160" height="26" as="geometry" />
        </mxCell>
        <mxCell id="d-9lpqkBZuLZvRprWv79-36" value="Student" style="swimlane;fontStyle=0;childLayout=stackLayout;horizontal=1;startSize=26;fillColor=none;horizontalStack=0;resizeParent=1;resizeParentMax=0;resizeLast=0;collapsible=1;marginBottom=0;whiteSpace=wrap;html=1;" parent="1" vertex="1">
          <mxGeometry x="550" y="780" width="140" height="208" as="geometry" />
        </mxCell>
        <mxCell id="d-9lpqkBZuLZvRprWv79-37" value="- email: String {id}" style="text;strokeColor=none;fillColor=none;align=left;verticalAlign=top;spacingLeft=4;spacingRight=4;overflow=hidden;rotatable=0;points=[[0,0.5],[1,0.5]];portConstraint=eastwest;whiteSpace=wrap;html=1;" parent="d-9lpqkBZuLZvRprWv79-36" vertex="1">
          <mxGeometry y="26" width="140" height="26" as="geometry" />
        </mxCell>
        <mxCell id="d-9lpqkBZuLZvRprWv79-38" value="- name: String" style="text;strokeColor=none;fillColor=none;align=left;verticalAlign=top;spacingLeft=4;spacingRight=4;overflow=hidden;rotatable=0;points=[[0,0.5],[1,0.5]];portConstraint=eastwest;whiteSpace=wrap;html=1;" parent="d-9lpqkBZuLZvRprWv79-36" vertex="1">
          <mxGeometry y="52" width="140" height="26" as="geometry" />
        </mxCell>
        <mxCell id="d-9lpqkBZuLZvRprWv79-39" value="- birthDate: LocalDate()" style="text;strokeColor=none;fillColor=none;align=left;verticalAlign=top;spacingLeft=4;spacingRight=4;overflow=hidden;rotatable=0;points=[[0,0.5],[1,0.5]];portConstraint=eastwest;whiteSpace=wrap;html=1;" parent="d-9lpqkBZuLZvRprWv79-36" vertex="1">
          <mxGeometry y="78" width="140" height="26" as="geometry" />
        </mxCell>
        <mxCell id="d-9lpqkBZuLZvRprWv79-40" value="- gender: Gender" style="text;strokeColor=none;fillColor=none;align=left;verticalAlign=top;spacingLeft=4;spacingRight=4;overflow=hidden;rotatable=0;points=[[0,0.5],[1,0.5]];portConstraint=eastwest;whiteSpace=wrap;html=1;" parent="d-9lpqkBZuLZvRprWv79-36" vertex="1">
          <mxGeometry y="104" width="140" height="26" as="geometry" />
        </mxCell>
        <mxCell id="d-9lpqkBZuLZvRprWv79-41" value="- address: String" style="text;strokeColor=none;fillColor=none;align=left;verticalAlign=top;spacingLeft=4;spacingRight=4;overflow=hidden;rotatable=0;points=[[0,0.5],[1,0.5]];portConstraint=eastwest;whiteSpace=wrap;html=1;" parent="d-9lpqkBZuLZvRprWv79-36" vertex="1">
          <mxGeometry y="130" width="140" height="26" as="geometry" />
        </mxCell>
        <mxCell id="d-9lpqkBZuLZvRprWv79-42" value="- city: String" style="text;strokeColor=none;fillColor=none;align=left;verticalAlign=top;spacingLeft=4;spacingRight=4;overflow=hidden;rotatable=0;points=[[0,0.5],[1,0.5]];portConstraint=eastwest;whiteSpace=wrap;html=1;" parent="d-9lpqkBZuLZvRprWv79-36" vertex="1">
          <mxGeometry y="156" width="140" height="26" as="geometry" />
        </mxCell>
        <mxCell id="d-9lpqkBZuLZvRprWv79-43" value="- country: String" style="text;strokeColor=none;fillColor=none;align=left;verticalAlign=top;spacingLeft=4;spacingRight=4;overflow=hidden;rotatable=0;points=[[0,0.5],[1,0.5]];portConstraint=eastwest;whiteSpace=wrap;html=1;" parent="d-9lpqkBZuLZvRprWv79-36" vertex="1">
          <mxGeometry y="182" width="140" height="26" as="geometry" />
        </mxCell>
        <mxCell id="d-9lpqkBZuLZvRprWv79-45" value="" style="endArrow=none;html=1;endSize=12;startArrow=none;startSize=14;startFill=0;edgeStyle=orthogonalEdgeStyle;rounded=0;endFill=0;" parent="1" source="d-9lpqkBZuLZvRprWv79-5" target="d-9lpqkBZuLZvRprWv79-36" edge="1">
          <mxGeometry relative="1" as="geometry">
            <mxPoint x="260" y="440" as="sourcePoint" />
            <mxPoint x="420" y="440" as="targetPoint" />
            <mxPoint as="offset" />
          </mxGeometry>
        </mxCell>
        <mxCell id="d-9lpqkBZuLZvRprWv79-46" value="0..*" style="edgeLabel;resizable=0;html=1;align=left;verticalAlign=top;" parent="d-9lpqkBZuLZvRprWv79-45" connectable="0" vertex="1">
          <mxGeometry x="-1" relative="1" as="geometry" />
        </mxCell>
        <mxCell id="d-9lpqkBZuLZvRprWv79-64" value="0..*" style="edgeLabel;html=1;align=center;verticalAlign=middle;resizable=0;points=[];" parent="d-9lpqkBZuLZvRprWv79-45" vertex="1" connectable="0">
          <mxGeometry x="0.815" relative="1" as="geometry">
            <mxPoint x="10" as="offset" />
          </mxGeometry>
        </mxCell>
        <mxCell id="d-9lpqkBZuLZvRprWv79-48" value="Content" style="swimlane;fontStyle=0;childLayout=stackLayout;horizontal=1;startSize=26;fillColor=none;horizontalStack=0;resizeParent=1;resizeParentMax=0;resizeLast=0;collapsible=1;marginBottom=0;whiteSpace=wrap;html=1;" parent="1" vertex="1">
          <mxGeometry x="340" y="472" width="180" height="132" as="geometry" />
        </mxCell>
        <mxCell id="d-9lpqkBZuLZvRprWv79-10" value="# title: String" style="text;strokeColor=none;fillColor=none;align=left;verticalAlign=top;spacingLeft=4;spacingRight=4;overflow=hidden;rotatable=0;points=[[0,0.5],[1,0.5]];portConstraint=eastwest;whiteSpace=wrap;html=1;" parent="d-9lpqkBZuLZvRprWv79-48" vertex="1">
          <mxGeometry y="26" width="180" height="26" as="geometry" />
        </mxCell>
        <mxCell id="d-9lpqkBZuLZvRprWv79-27" value="# description: String" style="text;strokeColor=none;fillColor=none;align=left;verticalAlign=top;spacingLeft=4;spacingRight=4;overflow=hidden;rotatable=0;points=[[0,0.5],[1,0.5]];portConstraint=eastwest;whiteSpace=wrap;html=1;" parent="d-9lpqkBZuLZvRprWv79-48" vertex="1">
          <mxGeometry y="52" width="180" height="26" as="geometry" />
        </mxCell>
        <mxCell id="d-9lpqkBZuLZvRprWv79-49" value="# publicationDate: LocalDate()" style="text;strokeColor=none;fillColor=none;align=left;verticalAlign=top;spacingLeft=4;spacingRight=4;overflow=hidden;rotatable=0;points=[[0,0.5],[1,0.5]];portConstraint=eastwest;whiteSpace=wrap;html=1;" parent="d-9lpqkBZuLZvRprWv79-48" vertex="1">
          <mxGeometry y="78" width="180" height="24" as="geometry" />
        </mxCell>
        <mxCell id="d-9lpqkBZuLZvRprWv79-50" value="# status: String" style="text;strokeColor=none;fillColor=none;align=left;verticalAlign=top;spacingLeft=4;spacingRight=4;overflow=hidden;rotatable=0;points=[[0,0.5],[1,0.5]];portConstraint=eastwest;whiteSpace=wrap;html=1;" parent="d-9lpqkBZuLZvRprWv79-48" vertex="1">
          <mxGeometry y="102" width="180" height="30" as="geometry" />
        </mxCell>
        <mxCell id="d-9lpqkBZuLZvRprWv79-52" value="" style="edgeStyle=orthogonalEdgeStyle;rounded=0;orthogonalLoop=1;jettySize=auto;html=1;endArrow=block;endFill=0;" parent="1" source="d-9lpqkBZuLZvRprWv79-1" target="d-9lpqkBZuLZvRprWv79-48" edge="1">
          <mxGeometry x="-0.9351" y="10" relative="1" as="geometry">
            <Array as="points">
              <mxPoint x="140" y="538" />
            </Array>
            <mxPoint as="offset" />
          </mxGeometry>
        </mxCell>
        <mxCell id="d-9lpqkBZuLZvRprWv79-65" style="edgeStyle=orthogonalEdgeStyle;rounded=0;orthogonalLoop=1;jettySize=auto;html=1;endArrow=none;endFill=0;" parent="1" source="d-9lpqkBZuLZvRprWv79-1" target="d-9lpqkBZuLZvRprWv79-5" edge="1">
          <mxGeometry relative="1" as="geometry">
            <Array as="points">
              <mxPoint x="650" y="280" />
            </Array>
          </mxGeometry>
        </mxCell>
        <mxCell id="d-9lpqkBZuLZvRprWv79-66" value="1..*" style="edgeLabel;html=1;align=center;verticalAlign=middle;resizable=0;points=[];" parent="d-9lpqkBZuLZvRprWv79-65" vertex="1" connectable="0">
          <mxGeometry x="-0.9092" y="1" relative="1" as="geometry">
            <mxPoint x="-6" y="-7" as="offset" />
          </mxGeometry>
        </mxCell>
        <mxCell id="d-9lpqkBZuLZvRprWv79-67" value="1" style="edgeLabel;html=1;align=center;verticalAlign=middle;resizable=0;points=[];" parent="d-9lpqkBZuLZvRprWv79-65" vertex="1" connectable="0">
          <mxGeometry x="0.9197" relative="1" as="geometry">
            <mxPoint x="10" as="offset" />
          </mxGeometry>
        </mxCell>
        <mxCell id="d-9lpqkBZuLZvRprWv79-68" style="edgeStyle=orthogonalEdgeStyle;rounded=0;orthogonalLoop=1;jettySize=auto;html=1;exitX=0;exitY=0.5;exitDx=0;exitDy=0;endArrow=none;endFill=0;" parent="1" source="d-9lpqkBZuLZvRprWv79-39" edge="1">
          <mxGeometry relative="1" as="geometry">
            <Array as="points">
              <mxPoint x="430" y="871" />
            </Array>
            <mxPoint x="430" y="604" as="targetPoint" />
          </mxGeometry>
        </mxCell>
        <mxCell id="d-9lpqkBZuLZvRprWv79-69" value="0..*" style="edgeLabel;html=1;align=center;verticalAlign=middle;resizable=0;points=[];" parent="d-9lpqkBZuLZvRprWv79-68" vertex="1" connectable="0">
          <mxGeometry x="0.943" y="-1" relative="1" as="geometry">
            <mxPoint x="9" y="1" as="offset" />
          </mxGeometry>
        </mxCell>
        <mxCell id="d-9lpqkBZuLZvRprWv79-70" value="0..*" style="edgeLabel;html=1;align=center;verticalAlign=middle;resizable=0;points=[];" parent="1" vertex="1" connectable="0">
          <mxGeometry x="510" y="860" as="geometry" />
        </mxCell>
        <mxCell id="-ISysN1ehly7zMD1c2o9-3" value="&lt;p style=&quot;margin:0px;margin-top:4px;text-align:center;&quot;&gt;&amp;lt;&amp;lt;enumeration&amp;gt;&amp;gt;&lt;br&gt;&lt;/p&gt;&lt;p style=&quot;margin:0px;margin-top:4px;text-align:center;&quot;&gt;Difficulty&lt;/p&gt;&lt;hr size=&quot;1&quot;&gt;&lt;p style=&quot;margin:0px;margin-left:4px;&quot;&gt;beginner&lt;/p&gt;&lt;p style=&quot;margin:0px;margin-left:4px;&quot;&gt;intermediate&lt;/p&gt;&lt;p style=&quot;margin:0px;margin-left:4px;&quot;&gt;expert&lt;/p&gt;" style="verticalAlign=top;align=left;overflow=fill;fontSize=12;fontFamily=Helvetica;html=1;whiteSpace=wrap;" vertex="1" parent="1">
          <mxGeometry x="740" y="430" width="190" height="96" as="geometry" />
        </mxCell>
        <mxCell id="-ISysN1ehly7zMD1c2o9-7" style="edgeStyle=orthogonalEdgeStyle;rounded=0;orthogonalLoop=1;jettySize=auto;html=1;exitX=1;exitY=0.5;exitDx=0;exitDy=0;" edge="1" parent="1" source="d-9lpqkBZuLZvRprWv79-35" target="-ISysN1ehly7zMD1c2o9-3">
          <mxGeometry relative="1" as="geometry" />
        </mxCell>
        <mxCell id="-ISysN1ehly7zMD1c2o9-8" value="&lt;p style=&quot;margin:0px;margin-top:4px;text-align:center;&quot;&gt;&amp;lt;&amp;lt;enumeration&amp;gt;&amp;gt;&lt;br&gt;Gender&lt;/p&gt;&lt;hr size=&quot;1&quot;&gt;&lt;p style=&quot;margin:0px;margin-left:4px;&quot;&gt;Male&lt;/p&gt;&lt;p style=&quot;margin:0px;margin-left:4px;&quot;&gt;Female&lt;br&gt;Other&lt;/p&gt;" style="verticalAlign=top;align=left;overflow=fill;fontSize=12;fontFamily=Helvetica;html=1;whiteSpace=wrap;" vertex="1" parent="1">
          <mxGeometry x="830" y="840" width="190" height="90" as="geometry" />
        </mxCell>
        <mxCell id="-ISysN1ehly7zMD1c2o9-11" style="edgeStyle=orthogonalEdgeStyle;rounded=0;orthogonalLoop=1;jettySize=auto;html=1;exitX=1;exitY=0.5;exitDx=0;exitDy=0;" edge="1" parent="1" source="d-9lpqkBZuLZvRprWv79-40" target="-ISysN1ehly7zMD1c2o9-8">
          <mxGeometry relative="1" as="geometry" />
        </mxCell>
        <mxCell id="-ISysN1ehly7zMD1c2o9-13" value="Progress" style="swimlane;fontStyle=1;align=center;verticalAlign=top;childLayout=stackLayout;horizontal=1;startSize=26;horizontalStack=0;resizeParent=1;resizeParentMax=0;resizeLast=0;collapsible=1;marginBottom=0;whiteSpace=wrap;html=1;" vertex="1" parent="1">
          <mxGeometry x="790" y="630" width="160" height="86" as="geometry" />
        </mxCell>
        <mxCell id="-ISysN1ehly7zMD1c2o9-14" value="+ field: type" style="text;strokeColor=none;fillColor=none;align=left;verticalAlign=top;spacingLeft=4;spacingRight=4;overflow=hidden;rotatable=0;points=[[0,0.5],[1,0.5]];portConstraint=eastwest;whiteSpace=wrap;html=1;" vertex="1" parent="-ISysN1ehly7zMD1c2o9-13">
          <mxGeometry y="26" width="160" height="26" as="geometry" />
        </mxCell>
        <mxCell id="-ISysN1ehly7zMD1c2o9-15" value="" style="line;strokeWidth=1;fillColor=none;align=left;verticalAlign=middle;spacingTop=-1;spacingLeft=3;spacingRight=3;rotatable=0;labelPosition=right;points=[];portConstraint=eastwest;strokeColor=inherit;" vertex="1" parent="-ISysN1ehly7zMD1c2o9-13">
          <mxGeometry y="52" width="160" height="8" as="geometry" />
        </mxCell>
        <mxCell id="-ISysN1ehly7zMD1c2o9-16" value="+ method(type): type" style="text;strokeColor=none;fillColor=none;align=left;verticalAlign=top;spacingLeft=4;spacingRight=4;overflow=hidden;rotatable=0;points=[[0,0.5],[1,0.5]];portConstraint=eastwest;whiteSpace=wrap;html=1;" vertex="1" parent="-ISysN1ehly7zMD1c2o9-13">
          <mxGeometry y="60" width="160" height="26" as="geometry" />
        </mxCell>
        <mxCell id="-ISysN1ehly7zMD1c2o9-19" style="edgeStyle=orthogonalEdgeStyle;rounded=0;orthogonalLoop=1;jettySize=auto;html=1;exitX=1;exitY=0.5;exitDx=0;exitDy=0;" edge="1" parent="1" source="-ISysN1ehly7zMD1c2o9-18" target="-ISysN1ehly7zMD1c2o9-13">
          <mxGeometry relative="1" as="geometry" />
        </mxCell>
        <mxCell id="swYiPMQ6J1ZVkimRJS83-1" value="" style="shape=folder;fontStyle=1;spacingTop=10;tabWidth=40;tabHeight=14;tabPosition=left;html=1;whiteSpace=wrap;" vertex="1" parent="1">
          <mxGeometry x="1120" y="299" width="380" height="331" as="geometry" />
        </mxCell>
        <mxCell id="swYiPMQ6J1ZVkimRJS83-2" value="Student" style="swimlane;fontStyle=0;childLayout=stackLayout;horizontal=1;startSize=26;fillColor=none;horizontalStack=0;resizeParent=1;resizeParentMax=0;resizeLast=0;collapsible=1;marginBottom=0;whiteSpace=wrap;html=1;" vertex="1" parent="1">
          <mxGeometry x="1120" y="422" width="140" height="208" as="geometry" />
        </mxCell>
        <mxCell id="swYiPMQ6J1ZVkimRJS83-3" value="- email: String {id}" style="text;strokeColor=none;fillColor=none;align=left;verticalAlign=top;spacingLeft=4;spacingRight=4;overflow=hidden;rotatable=0;points=[[0,0.5],[1,0.5]];portConstraint=eastwest;whiteSpace=wrap;html=1;" vertex="1" parent="swYiPMQ6J1ZVkimRJS83-2">
          <mxGeometry y="26" width="140" height="26" as="geometry" />
        </mxCell>
        <mxCell id="swYiPMQ6J1ZVkimRJS83-4" value="- name: String" style="text;strokeColor=none;fillColor=none;align=left;verticalAlign=top;spacingLeft=4;spacingRight=4;overflow=hidden;rotatable=0;points=[[0,0.5],[1,0.5]];portConstraint=eastwest;whiteSpace=wrap;html=1;" vertex="1" parent="swYiPMQ6J1ZVkimRJS83-2">
          <mxGeometry y="52" width="140" height="26" as="geometry" />
        </mxCell>
        <mxCell id="swYiPMQ6J1ZVkimRJS83-5" value="- birthDate: LocalDate()" style="text;strokeColor=none;fillColor=none;align=left;verticalAlign=top;spacingLeft=4;spacingRight=4;overflow=hidden;rotatable=0;points=[[0,0.5],[1,0.5]];portConstraint=eastwest;whiteSpace=wrap;html=1;" vertex="1" parent="swYiPMQ6J1ZVkimRJS83-2">
          <mxGeometry y="78" width="140" height="26" as="geometry" />
        </mxCell>
        <mxCell id="swYiPMQ6J1ZVkimRJS83-6" value="- gender: Gender" style="text;strokeColor=none;fillColor=none;align=left;verticalAlign=top;spacingLeft=4;spacingRight=4;overflow=hidden;rotatable=0;points=[[0,0.5],[1,0.5]];portConstraint=eastwest;whiteSpace=wrap;html=1;" vertex="1" parent="swYiPMQ6J1ZVkimRJS83-2">
          <mxGeometry y="104" width="140" height="26" as="geometry" />
        </mxCell>
        <mxCell id="swYiPMQ6J1ZVkimRJS83-7" value="- address: String" style="text;strokeColor=none;fillColor=none;align=left;verticalAlign=top;spacingLeft=4;spacingRight=4;overflow=hidden;rotatable=0;points=[[0,0.5],[1,0.5]];portConstraint=eastwest;whiteSpace=wrap;html=1;" vertex="1" parent="swYiPMQ6J1ZVkimRJS83-2">
          <mxGeometry y="130" width="140" height="26" as="geometry" />
        </mxCell>
        <mxCell id="swYiPMQ6J1ZVkimRJS83-8" value="- city: String" style="text;strokeColor=none;fillColor=none;align=left;verticalAlign=top;spacingLeft=4;spacingRight=4;overflow=hidden;rotatable=0;points=[[0,0.5],[1,0.5]];portConstraint=eastwest;whiteSpace=wrap;html=1;" vertex="1" parent="swYiPMQ6J1ZVkimRJS83-2">
          <mxGeometry y="156" width="140" height="26" as="geometry" />
        </mxCell>
        <mxCell id="swYiPMQ6J1ZVkimRJS83-9" value="- country: String" style="text;strokeColor=none;fillColor=none;align=left;verticalAlign=top;spacingLeft=4;spacingRight=4;overflow=hidden;rotatable=0;points=[[0,0.5],[1,0.5]];portConstraint=eastwest;whiteSpace=wrap;html=1;" vertex="1" parent="swYiPMQ6J1ZVkimRJS83-2">
          <mxGeometry y="182" width="140" height="26" as="geometry" />
        </mxCell>
        <mxCell id="swYiPMQ6J1ZVkimRJS83-10" value="Student" style="text;align=center;fontStyle=1;verticalAlign=middle;spacingLeft=3;spacingRight=3;strokeColor=none;rotatable=0;points=[[0,0.5],[1,0.5]];portConstraint=eastwest;html=1;" vertex="1" parent="1">
          <mxGeometry x="1270" y="310" width="80" height="26" as="geometry" />
        </mxCell>
        <mxCell id="swYiPMQ6J1ZVkimRJS83-11" value="&lt;p style=&quot;margin:0px;margin-top:4px;text-align:center;&quot;&gt;&amp;lt;&amp;lt;enumeration&amp;gt;&amp;gt;&lt;br&gt;Gender&lt;/p&gt;&lt;hr size=&quot;1&quot;&gt;&lt;p style=&quot;margin:0px;margin-left:4px;&quot;&gt;Male&lt;/p&gt;&lt;p style=&quot;margin:0px;margin-left:4px;&quot;&gt;Female&lt;br&gt;Other&lt;/p&gt;" style="verticalAlign=top;align=left;overflow=fill;fontSize=12;fontFamily=Helvetica;html=1;whiteSpace=wrap;" vertex="1" parent="1">
          <mxGeometry x="1300" y="436" width="190" height="90" as="geometry" />
        </mxCell>
        <mxCell id="swYiPMQ6J1ZVkimRJS83-12" style="edgeStyle=orthogonalEdgeStyle;rounded=0;orthogonalLoop=1;jettySize=auto;html=1;exitX=1;exitY=0.5;exitDx=0;exitDy=0;" edge="1" parent="1" source="swYiPMQ6J1ZVkimRJS83-6" target="swYiPMQ6J1ZVkimRJS83-11">
          <mxGeometry relative="1" as="geometry" />
        </mxCell>
      </root>
    </mxGraphModel>
  </diagram>
  <diagram id="WuwZ2Jd5sjz9tbkZgkNF" name="Package Diagram">
    <mxGraphModel dx="2074" dy="1196" grid="1" gridSize="10" guides="1" tooltips="1" connect="1" arrows="1" fold="1" page="1" pageScale="1" pageWidth="850" pageHeight="1100" math="0" shadow="0">
      <root>
        <mxCell id="0" />
        <mxCell id="1" parent="0" />
        <mxCell id="w4KsRJP5bnULRGxtlXIr-1" value="" style="shape=folder;fontStyle=1;spacingTop=10;tabWidth=40;tabHeight=14;tabPosition=left;html=1;whiteSpace=wrap;" vertex="1" parent="1">
          <mxGeometry x="1200" y="123" width="640" height="777" as="geometry" />
        </mxCell>
        <mxCell id="w4KsRJP5bnULRGxtlXIr-2" style="edgeStyle=orthogonalEdgeStyle;rounded=0;orthogonalLoop=1;jettySize=auto;html=1;exitX=0.5;exitY=0;exitDx=0;exitDy=0;" edge="1" parent="1" source="w4KsRJP5bnULRGxtlXIr-3" target="w4KsRJP5bnULRGxtlXIr-23">
          <mxGeometry relative="1" as="geometry" />
        </mxCell>
        <mxCell id="w4KsRJP5bnULRGxtlXIr-3" value="Content" style="swimlane;fontStyle=0;childLayout=stackLayout;horizontal=1;startSize=26;fillColor=none;horizontalStack=0;resizeParent=1;resizeParentMax=0;resizeLast=0;collapsible=1;marginBottom=0;whiteSpace=wrap;html=1;" vertex="1" parent="1">
          <mxGeometry x="1200" y="472" width="180" height="132" as="geometry" />
        </mxCell>
        <mxCell id="w4KsRJP5bnULRGxtlXIr-4" value="# title: String" style="text;strokeColor=none;fillColor=none;align=left;verticalAlign=top;spacingLeft=4;spacingRight=4;overflow=hidden;rotatable=0;points=[[0,0.5],[1,0.5]];portConstraint=eastwest;whiteSpace=wrap;html=1;" vertex="1" parent="w4KsRJP5bnULRGxtlXIr-3">
          <mxGeometry y="26" width="180" height="26" as="geometry" />
        </mxCell>
        <mxCell id="w4KsRJP5bnULRGxtlXIr-5" value="# description: String" style="text;strokeColor=none;fillColor=none;align=left;verticalAlign=top;spacingLeft=4;spacingRight=4;overflow=hidden;rotatable=0;points=[[0,0.5],[1,0.5]];portConstraint=eastwest;whiteSpace=wrap;html=1;" vertex="1" parent="w4KsRJP5bnULRGxtlXIr-3">
          <mxGeometry y="52" width="180" height="26" as="geometry" />
        </mxCell>
        <mxCell id="w4KsRJP5bnULRGxtlXIr-6" value="# publicationDate: LocalDate()" style="text;strokeColor=none;fillColor=none;align=left;verticalAlign=top;spacingLeft=4;spacingRight=4;overflow=hidden;rotatable=0;points=[[0,0.5],[1,0.5]];portConstraint=eastwest;whiteSpace=wrap;html=1;" vertex="1" parent="w4KsRJP5bnULRGxtlXIr-3">
          <mxGeometry y="78" width="180" height="24" as="geometry" />
        </mxCell>
        <mxCell id="w4KsRJP5bnULRGxtlXIr-7" value="# status: String" style="text;strokeColor=none;fillColor=none;align=left;verticalAlign=top;spacingLeft=4;spacingRight=4;overflow=hidden;rotatable=0;points=[[0,0.5],[1,0.5]];portConstraint=eastwest;whiteSpace=wrap;html=1;" vertex="1" parent="w4KsRJP5bnULRGxtlXIr-3">
          <mxGeometry y="102" width="180" height="30" as="geometry" />
        </mxCell>
        <mxCell id="w4KsRJP5bnULRGxtlXIr-8" value="Content" style="text;align=center;fontStyle=1;verticalAlign=middle;spacingLeft=3;spacingRight=3;strokeColor=none;rotatable=0;points=[[0,0.5],[1,0.5]];portConstraint=eastwest;html=1;" vertex="1" parent="1">
          <mxGeometry x="1480" y="140" width="80" height="26" as="geometry" />
        </mxCell>
        <mxCell id="w4KsRJP5bnULRGxtlXIr-9" style="edgeStyle=orthogonalEdgeStyle;rounded=0;orthogonalLoop=1;jettySize=auto;html=1;exitX=0.5;exitY=0;exitDx=0;exitDy=0;" edge="1" parent="1" source="w4KsRJP5bnULRGxtlXIr-10" target="w4KsRJP5bnULRGxtlXIr-7">
          <mxGeometry relative="1" as="geometry">
            <Array as="points">
              <mxPoint x="1290" y="630" />
              <mxPoint x="1290" y="630" />
            </Array>
          </mxGeometry>
        </mxCell>
        <mxCell id="w4KsRJP5bnULRGxtlXIr-10" value="Module" style="swimlane;fontStyle=1;align=center;verticalAlign=top;childLayout=stackLayout;horizontal=1;startSize=26;horizontalStack=0;resizeParent=1;resizeParentMax=0;resizeLast=0;collapsible=1;marginBottom=0;whiteSpace=wrap;html=1;" vertex="1" parent="1">
          <mxGeometry x="1200" y="706" width="190" height="170" as="geometry" />
        </mxCell>
        <mxCell id="w4KsRJP5bnULRGxtlXIr-11" value="- version: String {id}" style="text;strokeColor=none;fillColor=none;align=left;verticalAlign=top;spacingLeft=4;spacingRight=4;overflow=hidden;rotatable=0;points=[[0,0.5],[1,0.5]];portConstraint=eastwest;whiteSpace=wrap;html=1;" vertex="1" parent="w4KsRJP5bnULRGxtlXIr-10">
          <mxGeometry y="26" width="190" height="26" as="geometry" />
        </mxCell>
        <mxCell id="w4KsRJP5bnULRGxtlXIr-12" value="- ReferenceNr: String {unique}" style="text;strokeColor=none;fillColor=none;align=left;verticalAlign=top;spacingLeft=4;spacingRight=4;overflow=hidden;rotatable=0;points=[[0,0.5],[1,0.5]];portConstraint=eastwest;whiteSpace=wrap;html=1;" vertex="1" parent="w4KsRJP5bnULRGxtlXIr-10">
          <mxGeometry y="52" width="190" height="26" as="geometry" />
        </mxCell>
        <mxCell id="w4KsRJP5bnULRGxtlXIr-13" value="- contactPersonName: String" style="text;strokeColor=none;fillColor=none;align=left;verticalAlign=top;spacingLeft=4;spacingRight=4;overflow=hidden;rotatable=0;points=[[0,0.5],[1,0.5]];portConstraint=eastwest;whiteSpace=wrap;html=1;" vertex="1" parent="w4KsRJP5bnULRGxtlXIr-10">
          <mxGeometry y="78" width="190" height="32" as="geometry" />
        </mxCell>
        <mxCell id="w4KsRJP5bnULRGxtlXIr-14" value="- contactPersonMail: String" style="text;strokeColor=none;fillColor=none;align=left;verticalAlign=top;spacingLeft=4;spacingRight=4;overflow=hidden;rotatable=0;points=[[0,0.5],[1,0.5]];portConstraint=eastwest;whiteSpace=wrap;html=1;" vertex="1" parent="w4KsRJP5bnULRGxtlXIr-10">
          <mxGeometry y="110" width="190" height="26" as="geometry" />
        </mxCell>
        <mxCell id="w4KsRJP5bnULRGxtlXIr-15" value="" style="line;strokeWidth=1;fillColor=none;align=left;verticalAlign=middle;spacingTop=-1;spacingLeft=3;spacingRight=3;rotatable=0;labelPosition=right;points=[];portConstraint=eastwest;strokeColor=inherit;" vertex="1" parent="w4KsRJP5bnULRGxtlXIr-10">
          <mxGeometry y="136" width="190" height="8" as="geometry" />
        </mxCell>
        <mxCell id="w4KsRJP5bnULRGxtlXIr-16" value="+ method(type): type" style="text;strokeColor=none;fillColor=none;align=left;verticalAlign=top;spacingLeft=4;spacingRight=4;overflow=hidden;rotatable=0;points=[[0,0.5],[1,0.5]];portConstraint=eastwest;whiteSpace=wrap;html=1;" vertex="1" parent="w4KsRJP5bnULRGxtlXIr-10">
          <mxGeometry y="144" width="190" height="26" as="geometry" />
        </mxCell>
        <mxCell id="w4KsRJP5bnULRGxtlXIr-17" style="edgeStyle=orthogonalEdgeStyle;rounded=0;orthogonalLoop=1;jettySize=auto;html=1;exitX=0.5;exitY=0;exitDx=0;exitDy=0;" edge="1" parent="1" source="w4KsRJP5bnULRGxtlXIr-18" target="w4KsRJP5bnULRGxtlXIr-3">
          <mxGeometry relative="1" as="geometry" />
        </mxCell>
        <mxCell id="w4KsRJP5bnULRGxtlXIr-18" value="Webcast" style="swimlane;fontStyle=1;align=center;verticalAlign=top;childLayout=stackLayout;horizontal=1;startSize=26;horizontalStack=0;resizeParent=1;resizeParentMax=0;resizeLast=0;collapsible=1;marginBottom=0;whiteSpace=wrap;html=1;" vertex="1" parent="1">
          <mxGeometry x="1400" y="706" width="160" height="122" as="geometry" />
        </mxCell>
        <mxCell id="w4KsRJP5bnULRGxtlXIr-19" value="- presenterName: String" style="text;strokeColor=none;fillColor=none;align=left;verticalAlign=top;spacingLeft=4;spacingRight=4;overflow=hidden;rotatable=0;points=[[0,0.5],[1,0.5]];portConstraint=eastwest;whiteSpace=wrap;html=1;" vertex="1" parent="w4KsRJP5bnULRGxtlXIr-18">
          <mxGeometry y="26" width="160" height="26" as="geometry" />
        </mxCell>
        <mxCell id="w4KsRJP5bnULRGxtlXIr-20" value="- presenterOrganization: String" style="text;strokeColor=none;fillColor=none;align=left;verticalAlign=top;spacingLeft=4;spacingRight=4;overflow=hidden;rotatable=0;points=[[0,0.5],[1,0.5]];portConstraint=eastwest;whiteSpace=wrap;html=1;" vertex="1" parent="w4KsRJP5bnULRGxtlXIr-18">
          <mxGeometry y="52" width="160" height="36" as="geometry" />
        </mxCell>
        <mxCell id="w4KsRJP5bnULRGxtlXIr-21" value="" style="line;strokeWidth=1;fillColor=none;align=left;verticalAlign=middle;spacingTop=-1;spacingLeft=3;spacingRight=3;rotatable=0;labelPosition=right;points=[];portConstraint=eastwest;strokeColor=inherit;" vertex="1" parent="w4KsRJP5bnULRGxtlXIr-18">
          <mxGeometry y="88" width="160" height="8" as="geometry" />
        </mxCell>
        <mxCell id="w4KsRJP5bnULRGxtlXIr-22" value="+ method(type): type" style="text;strokeColor=none;fillColor=none;align=left;verticalAlign=top;spacingLeft=4;spacingRight=4;overflow=hidden;rotatable=0;points=[[0,0.5],[1,0.5]];portConstraint=eastwest;whiteSpace=wrap;html=1;" vertex="1" parent="w4KsRJP5bnULRGxtlXIr-18">
          <mxGeometry y="96" width="160" height="26" as="geometry" />
        </mxCell>
        <mxCell id="w4KsRJP5bnULRGxtlXIr-23" value="Course" style="swimlane;fontStyle=1;align=center;verticalAlign=top;childLayout=stackLayout;horizontal=1;startSize=26;horizontalStack=0;resizeParent=1;resizeParentMax=0;resizeLast=0;collapsible=1;marginBottom=0;whiteSpace=wrap;html=1;" vertex="1" parent="1">
          <mxGeometry x="1200" y="190" width="160" height="240" as="geometry" />
        </mxCell>
        <mxCell id="w4KsRJP5bnULRGxtlXIr-24" value="- moduleList: Map&amp;lt;String, Module&amp;gt;" style="text;strokeColor=none;fillColor=none;align=left;verticalAlign=top;spacingLeft=4;spacingRight=4;overflow=hidden;rotatable=0;points=[[0,0.5],[1,0.5]];portConstraint=eastwest;whiteSpace=wrap;html=1;" vertex="1" parent="w4KsRJP5bnULRGxtlXIr-23">
          <mxGeometry y="26" width="160" height="34" as="geometry" />
        </mxCell>
        <mxCell id="w4KsRJP5bnULRGxtlXIr-25" value="- courseName: String" style="text;strokeColor=none;fillColor=none;align=left;verticalAlign=top;spacingLeft=4;spacingRight=4;overflow=hidden;rotatable=0;points=[[0,0.5],[1,0.5]];portConstraint=eastwest;whiteSpace=wrap;html=1;" vertex="1" parent="w4KsRJP5bnULRGxtlXIr-23">
          <mxGeometry y="60" width="160" height="30" as="geometry" />
        </mxCell>
        <mxCell id="w4KsRJP5bnULRGxtlXIr-26" value="- subject: String" style="text;strokeColor=none;fillColor=none;align=left;verticalAlign=top;spacingLeft=4;spacingRight=4;overflow=hidden;rotatable=0;points=[[0,0.5],[1,0.5]];portConstraint=eastwest;whiteSpace=wrap;html=1;" vertex="1" parent="w4KsRJP5bnULRGxtlXIr-23">
          <mxGeometry y="90" width="160" height="30" as="geometry" />
        </mxCell>
        <mxCell id="w4KsRJP5bnULRGxtlXIr-27" value="- introText: String" style="text;strokeColor=none;fillColor=none;align=left;verticalAlign=top;spacingLeft=4;spacingRight=4;overflow=hidden;rotatable=0;points=[[0,0.5],[1,0.5]];portConstraint=eastwest;whiteSpace=wrap;html=1;" vertex="1" parent="w4KsRJP5bnULRGxtlXIr-23">
          <mxGeometry y="120" width="160" height="30" as="geometry" />
        </mxCell>
        <mxCell id="w4KsRJP5bnULRGxtlXIr-28" value="- difficulty: Difficulty" style="text;strokeColor=none;fillColor=none;align=left;verticalAlign=top;spacingLeft=4;spacingRight=4;overflow=hidden;rotatable=0;points=[[0,0.5],[1,0.5]];portConstraint=eastwest;whiteSpace=wrap;html=1;" vertex="1" parent="w4KsRJP5bnULRGxtlXIr-23">
          <mxGeometry y="150" width="160" height="30" as="geometry" />
        </mxCell>
        <mxCell id="w4KsRJP5bnULRGxtlXIr-29" value="- progress: Progress" style="text;strokeColor=none;fillColor=none;align=left;verticalAlign=top;spacingLeft=4;spacingRight=4;overflow=hidden;rotatable=0;points=[[0,0.5],[1,0.5]];portConstraint=eastwest;whiteSpace=wrap;html=1;" vertex="1" parent="w4KsRJP5bnULRGxtlXIr-23">
          <mxGeometry y="180" width="160" height="26" as="geometry" />
        </mxCell>
        <mxCell id="w4KsRJP5bnULRGxtlXIr-30" value="" style="line;strokeWidth=1;fillColor=none;align=left;verticalAlign=middle;spacingTop=-1;spacingLeft=3;spacingRight=3;rotatable=0;labelPosition=right;points=[];portConstraint=eastwest;strokeColor=inherit;" vertex="1" parent="w4KsRJP5bnULRGxtlXIr-23">
          <mxGeometry y="206" width="160" height="8" as="geometry" />
        </mxCell>
        <mxCell id="w4KsRJP5bnULRGxtlXIr-31" value="+ method(type): type" style="text;strokeColor=none;fillColor=none;align=left;verticalAlign=top;spacingLeft=4;spacingRight=4;overflow=hidden;rotatable=0;points=[[0,0.5],[1,0.5]];portConstraint=eastwest;whiteSpace=wrap;html=1;" vertex="1" parent="w4KsRJP5bnULRGxtlXIr-23">
          <mxGeometry y="214" width="160" height="26" as="geometry" />
        </mxCell>
        <mxCell id="w4KsRJP5bnULRGxtlXIr-32" style="edgeStyle=orthogonalEdgeStyle;rounded=0;orthogonalLoop=1;jettySize=auto;html=1;exitX=1;exitY=0.5;exitDx=0;exitDy=0;" edge="1" parent="1" source="w4KsRJP5bnULRGxtlXIr-16" target="w4KsRJP5bnULRGxtlXIr-23">
          <mxGeometry relative="1" as="geometry">
            <Array as="points">
              <mxPoint x="1640" y="863" />
              <mxPoint x="1640" y="260" />
            </Array>
          </mxGeometry>
        </mxCell>
        <mxCell id="w4KsRJP5bnULRGxtlXIr-33" value="1..*" style="edgeLabel;html=1;align=center;verticalAlign=middle;resizable=0;points=[];" vertex="1" connectable="0" parent="w4KsRJP5bnULRGxtlXIr-32">
          <mxGeometry x="-0.9502" y="-1" relative="1" as="geometry">
            <mxPoint as="offset" />
          </mxGeometry>
        </mxCell>
        <mxCell id="w4KsRJP5bnULRGxtlXIr-34" value="1" style="edgeLabel;html=1;align=center;verticalAlign=middle;resizable=0;points=[];" vertex="1" connectable="0" parent="w4KsRJP5bnULRGxtlXIr-32">
          <mxGeometry x="0.9418" y="1" relative="1" as="geometry">
            <mxPoint as="offset" />
          </mxGeometry>
        </mxCell>
        <mxCell id="w4KsRJP5bnULRGxtlXIr-35" value="Progress" style="swimlane;fontStyle=1;align=center;verticalAlign=top;childLayout=stackLayout;horizontal=1;startSize=26;horizontalStack=0;resizeParent=1;resizeParentMax=0;resizeLast=0;collapsible=1;marginBottom=0;whiteSpace=wrap;html=1;" vertex="1" parent="1">
          <mxGeometry x="1390" y="464" width="160" height="86" as="geometry" />
        </mxCell>
        <mxCell id="w4KsRJP5bnULRGxtlXIr-36" value="+ field: type" style="text;strokeColor=none;fillColor=none;align=left;verticalAlign=top;spacingLeft=4;spacingRight=4;overflow=hidden;rotatable=0;points=[[0,0.5],[1,0.5]];portConstraint=eastwest;whiteSpace=wrap;html=1;" vertex="1" parent="w4KsRJP5bnULRGxtlXIr-35">
          <mxGeometry y="26" width="160" height="26" as="geometry" />
        </mxCell>
        <mxCell id="w4KsRJP5bnULRGxtlXIr-37" value="" style="line;strokeWidth=1;fillColor=none;align=left;verticalAlign=middle;spacingTop=-1;spacingLeft=3;spacingRight=3;rotatable=0;labelPosition=right;points=[];portConstraint=eastwest;strokeColor=inherit;" vertex="1" parent="w4KsRJP5bnULRGxtlXIr-35">
          <mxGeometry y="52" width="160" height="8" as="geometry" />
        </mxCell>
        <mxCell id="w4KsRJP5bnULRGxtlXIr-38" value="+ method(type): type" style="text;strokeColor=none;fillColor=none;align=left;verticalAlign=top;spacingLeft=4;spacingRight=4;overflow=hidden;rotatable=0;points=[[0,0.5],[1,0.5]];portConstraint=eastwest;whiteSpace=wrap;html=1;" vertex="1" parent="w4KsRJP5bnULRGxtlXIr-35">
          <mxGeometry y="60" width="160" height="26" as="geometry" />
        </mxCell>
        <mxCell id="w4KsRJP5bnULRGxtlXIr-39" style="edgeStyle=orthogonalEdgeStyle;rounded=0;orthogonalLoop=1;jettySize=auto;html=1;exitX=1;exitY=0.5;exitDx=0;exitDy=0;" edge="1" parent="1" source="w4KsRJP5bnULRGxtlXIr-29" target="w4KsRJP5bnULRGxtlXIr-35">
          <mxGeometry relative="1" as="geometry" />
        </mxCell>
        <mxCell id="w4KsRJP5bnULRGxtlXIr-40" value="&lt;p style=&quot;margin:0px;margin-top:4px;text-align:center;&quot;&gt;&amp;lt;&amp;lt;enumeration&amp;gt;&amp;gt;&lt;br&gt;&lt;/p&gt;&lt;p style=&quot;margin:0px;margin-top:4px;text-align:center;&quot;&gt;Difficulty&lt;/p&gt;&lt;hr size=&quot;1&quot;&gt;&lt;p style=&quot;margin:0px;margin-left:4px;&quot;&gt;beginner&lt;/p&gt;&lt;p style=&quot;margin:0px;margin-left:4px;&quot;&gt;intermediate&lt;/p&gt;&lt;p style=&quot;margin:0px;margin-left:4px;&quot;&gt;expert&lt;/p&gt;" style="verticalAlign=top;align=left;overflow=fill;fontSize=12;fontFamily=Helvetica;html=1;whiteSpace=wrap;" vertex="1" parent="1">
          <mxGeometry x="1430" y="280" width="190" height="96" as="geometry" />
        </mxCell>
        <mxCell id="w4KsRJP5bnULRGxtlXIr-41" style="edgeStyle=orthogonalEdgeStyle;rounded=0;orthogonalLoop=1;jettySize=auto;html=1;exitX=1;exitY=0.5;exitDx=0;exitDy=0;" edge="1" parent="1" source="w4KsRJP5bnULRGxtlXIr-28" target="w4KsRJP5bnULRGxtlXIr-40">
          <mxGeometry relative="1" as="geometry" />
        </mxCell>
        <mxCell id="9ObyUzx7ihIiOS2Y1izf-1" value="" style="shape=folder;fontStyle=1;spacingTop=10;tabWidth=40;tabHeight=14;tabPosition=left;html=1;whiteSpace=wrap;" vertex="1" parent="1">
          <mxGeometry x="740" y="123" width="380" height="331" as="geometry" />
        </mxCell>
        <mxCell id="9ObyUzx7ihIiOS2Y1izf-13" style="edgeStyle=orthogonalEdgeStyle;rounded=0;orthogonalLoop=1;jettySize=auto;html=1;exitX=0.5;exitY=0;exitDx=0;exitDy=0;" edge="1" parent="1" source="9ObyUzx7ihIiOS2Y1izf-2" target="w4KsRJP5bnULRGxtlXIr-23">
          <mxGeometry relative="1" as="geometry">
            <Array as="points">
              <mxPoint x="810" y="226" />
            </Array>
          </mxGeometry>
        </mxCell>
        <mxCell id="9ObyUzx7ihIiOS2Y1izf-2" value="Student" style="swimlane;fontStyle=0;childLayout=stackLayout;horizontal=1;startSize=26;fillColor=none;horizontalStack=0;resizeParent=1;resizeParentMax=0;resizeLast=0;collapsible=1;marginBottom=0;whiteSpace=wrap;html=1;" vertex="1" parent="1">
          <mxGeometry x="740" y="240" width="140" height="208" as="geometry" />
        </mxCell>
        <mxCell id="9ObyUzx7ihIiOS2Y1izf-3" value="- email: String {id}" style="text;strokeColor=none;fillColor=none;align=left;verticalAlign=top;spacingLeft=4;spacingRight=4;overflow=hidden;rotatable=0;points=[[0,0.5],[1,0.5]];portConstraint=eastwest;whiteSpace=wrap;html=1;" vertex="1" parent="9ObyUzx7ihIiOS2Y1izf-2">
          <mxGeometry y="26" width="140" height="26" as="geometry" />
        </mxCell>
        <mxCell id="9ObyUzx7ihIiOS2Y1izf-4" value="- name: String" style="text;strokeColor=none;fillColor=none;align=left;verticalAlign=top;spacingLeft=4;spacingRight=4;overflow=hidden;rotatable=0;points=[[0,0.5],[1,0.5]];portConstraint=eastwest;whiteSpace=wrap;html=1;" vertex="1" parent="9ObyUzx7ihIiOS2Y1izf-2">
          <mxGeometry y="52" width="140" height="26" as="geometry" />
        </mxCell>
        <mxCell id="9ObyUzx7ihIiOS2Y1izf-5" value="- birthDate: LocalDate()" style="text;strokeColor=none;fillColor=none;align=left;verticalAlign=top;spacingLeft=4;spacingRight=4;overflow=hidden;rotatable=0;points=[[0,0.5],[1,0.5]];portConstraint=eastwest;whiteSpace=wrap;html=1;" vertex="1" parent="9ObyUzx7ihIiOS2Y1izf-2">
          <mxGeometry y="78" width="140" height="26" as="geometry" />
        </mxCell>
        <mxCell id="9ObyUzx7ihIiOS2Y1izf-6" value="- gender: Gender" style="text;strokeColor=none;fillColor=none;align=left;verticalAlign=top;spacingLeft=4;spacingRight=4;overflow=hidden;rotatable=0;points=[[0,0.5],[1,0.5]];portConstraint=eastwest;whiteSpace=wrap;html=1;" vertex="1" parent="9ObyUzx7ihIiOS2Y1izf-2">
          <mxGeometry y="104" width="140" height="26" as="geometry" />
        </mxCell>
        <mxCell id="9ObyUzx7ihIiOS2Y1izf-7" value="- address: String" style="text;strokeColor=none;fillColor=none;align=left;verticalAlign=top;spacingLeft=4;spacingRight=4;overflow=hidden;rotatable=0;points=[[0,0.5],[1,0.5]];portConstraint=eastwest;whiteSpace=wrap;html=1;" vertex="1" parent="9ObyUzx7ihIiOS2Y1izf-2">
          <mxGeometry y="130" width="140" height="26" as="geometry" />
        </mxCell>
        <mxCell id="9ObyUzx7ihIiOS2Y1izf-8" value="- city: String" style="text;strokeColor=none;fillColor=none;align=left;verticalAlign=top;spacingLeft=4;spacingRight=4;overflow=hidden;rotatable=0;points=[[0,0.5],[1,0.5]];portConstraint=eastwest;whiteSpace=wrap;html=1;" vertex="1" parent="9ObyUzx7ihIiOS2Y1izf-2">
          <mxGeometry y="156" width="140" height="26" as="geometry" />
        </mxCell>
        <mxCell id="9ObyUzx7ihIiOS2Y1izf-9" value="- country: String" style="text;strokeColor=none;fillColor=none;align=left;verticalAlign=top;spacingLeft=4;spacingRight=4;overflow=hidden;rotatable=0;points=[[0,0.5],[1,0.5]];portConstraint=eastwest;whiteSpace=wrap;html=1;" vertex="1" parent="9ObyUzx7ihIiOS2Y1izf-2">
          <mxGeometry y="182" width="140" height="26" as="geometry" />
        </mxCell>
        <mxCell id="9ObyUzx7ihIiOS2Y1izf-10" value="Student" style="text;align=center;fontStyle=1;verticalAlign=middle;spacingLeft=3;spacingRight=3;strokeColor=none;rotatable=0;points=[[0,0.5],[1,0.5]];portConstraint=eastwest;html=1;" vertex="1" parent="1">
          <mxGeometry x="890" y="134" width="80" height="26" as="geometry" />
        </mxCell>
        <mxCell id="9ObyUzx7ihIiOS2Y1izf-11" value="&lt;p style=&quot;margin:0px;margin-top:4px;text-align:center;&quot;&gt;&amp;lt;&amp;lt;enumeration&amp;gt;&amp;gt;&lt;br&gt;Gender&lt;/p&gt;&lt;hr size=&quot;1&quot;&gt;&lt;p style=&quot;margin:0px;margin-left:4px;&quot;&gt;Male&lt;/p&gt;&lt;p style=&quot;margin:0px;margin-left:4px;&quot;&gt;Fema&lt;span style=&quot;background-color: initial;&quot;&gt;le&lt;/span&gt;&lt;/p&gt;&lt;p style=&quot;margin:0px;margin-left:4px;&quot;&gt;Other&lt;/p&gt;" style="verticalAlign=top;align=left;overflow=fill;fontSize=12;fontFamily=Helvetica;html=1;whiteSpace=wrap;" vertex="1" parent="1">
          <mxGeometry x="920" y="260" width="190" height="90" as="geometry" />
        </mxCell>
        <mxCell id="9ObyUzx7ihIiOS2Y1izf-12" style="edgeStyle=orthogonalEdgeStyle;rounded=0;orthogonalLoop=1;jettySize=auto;html=1;exitX=1;exitY=0.5;exitDx=0;exitDy=0;" edge="1" parent="1" source="9ObyUzx7ihIiOS2Y1izf-6" target="9ObyUzx7ihIiOS2Y1izf-11">
          <mxGeometry relative="1" as="geometry" />
        </mxCell>
        <mxCell id="9ObyUzx7ihIiOS2Y1izf-14" style="edgeStyle=orthogonalEdgeStyle;rounded=0;orthogonalLoop=1;jettySize=auto;html=1;exitX=1;exitY=0.5;exitDx=0;exitDy=0;" edge="1" parent="1" source="9ObyUzx7ihIiOS2Y1izf-9" target="w4KsRJP5bnULRGxtlXIr-23">
          <mxGeometry relative="1" as="geometry">
            <Array as="points">
              <mxPoint x="1130" y="435" />
              <mxPoint x="1130" y="370" />
            </Array>
          </mxGeometry>
        </mxCell>
      </root>
    </mxGraphModel>
  </diagram>
</mxfile>
